<svg width="20" height="20" viewBox="0 0 20 20" fill="none" xmlns="http://www.w3.org/2000/svg">
<path d="M16.4442 4.93794C16.4442 5.70078 15.8258 6.31919 15.063 6.31919C14.3001 6.31919 13.6817 5.70078 13.6817 4.93794C13.6817 4.1751 14.3001 3.55669 15.063 3.55669C15.8258 3.55669 16.4442 4.1751 16.4442 4.93794Z" fill="white"/>
<path fill-rule="evenodd" clip-rule="evenodd" d="M9.99837 14.6067C12.5412 14.6067 14.6025 12.5453 14.6025 10.0025C14.6025 7.45971 12.5412 5.39836 9.99837 5.39836C7.45556 5.39836 5.39421 7.45971 5.39421 10.0025C5.39421 12.5453 7.45556 14.6067 9.99837 14.6067ZM9.99837 12.765C11.5241 12.765 12.7609 11.5282 12.7609 10.0025C12.7609 8.47684 11.5241 7.24002 9.99837 7.24002C8.47269 7.24002 7.23587 8.47684 7.23587 10.0025C7.23587 11.5282 8.47269 12.765 9.99837 12.765Z" fill="white"/>
<path fill-rule="evenodd" clip-rule="evenodd" d="M0.790039 9.63419C0.790039 6.5399 0.790039 4.99275 1.39223 3.81089C1.92193 2.7713 2.76715 1.92608 3.80674 1.39638C4.9886 0.794189 6.53575 0.794189 9.63004 0.794189H10.3667C13.461 0.794189 15.0081 0.794189 16.19 1.39638C17.2296 1.92608 18.0748 2.7713 18.6045 3.81089C19.2067 4.99275 19.2067 6.5399 19.2067 9.63419V10.3709C19.2067 13.4651 19.2067 15.0123 18.6045 16.1942C18.0748 17.2338 17.2296 18.079 16.19 18.6087C15.0081 19.2109 13.461 19.2109 10.3667 19.2109H9.63004C6.53575 19.2109 4.9886 19.2109 3.80674 18.6087C2.76715 18.079 1.92193 17.2338 1.39223 16.1942C0.790039 15.0123 0.790039 13.4651 0.790039 10.3709V9.63419ZM9.63004 2.63586H10.3667C11.9442 2.63586 13.0166 2.63729 13.8455 2.70501C14.653 2.77098 15.0659 2.89055 15.3539 3.03732C16.047 3.39045 16.6104 3.95393 16.9636 4.64699C17.1103 4.93503 17.2299 5.34794 17.2959 6.15535C17.3636 6.98427 17.365 8.05666 17.365 9.63419V10.3709C17.365 11.9484 17.3636 13.0208 17.2959 13.8497C17.2299 14.6571 17.1103 15.07 16.9636 15.3581C16.6104 16.0511 16.047 16.6146 15.3539 16.9677C15.0659 17.1145 14.653 17.2341 13.8455 17.3C13.0166 17.3678 11.9442 17.3692 10.3667 17.3692H9.63004C8.05251 17.3692 6.98012 17.3678 6.1512 17.3C5.34379 17.2341 4.93088 17.1145 4.64284 16.9677C3.94978 16.6146 3.3863 16.0511 3.03317 15.3581C2.8864 15.07 2.76683 14.6571 2.70086 13.8497C2.63314 13.0208 2.63171 11.9484 2.63171 10.3709V9.63419C2.63171 8.05666 2.63314 6.98427 2.70086 6.15535C2.76683 5.34794 2.8864 4.93503 3.03317 4.64699C3.3863 3.95393 3.94978 3.39045 4.64284 3.03732C4.93088 2.89055 5.34379 2.77098 6.1512 2.70501C6.98012 2.63729 8.05251 2.63586 9.63004 2.63586Z" fill="white"/>
</svg>
