<svg width="20" height="20" viewBox="0 0 20 20" fill="none" xmlns="http://www.w3.org/2000/svg">
<path d="M5.23282 3.02017C5.23282 4.24955 4.23827 5.24615 3.01143 5.24615C1.78459 5.24615 0.790039 4.24955 0.790039 3.02017C0.790039 1.7908 1.78459 0.794189 3.01143 0.794189C4.23827 0.794189 5.23282 1.7908 5.23282 3.02017Z" fill="white"/>
<path d="M1.09382 6.88235H4.89107V19.2109H1.09382V6.88235Z" fill="white"/>
<path d="M11.0046 6.88235H7.20739V19.2109H11.0046C11.0046 19.2109 11.0046 15.3297 11.0046 12.903C11.0046 11.4464 11.4688 9.9835 13.321 9.9835C15.4141 9.9835 15.4015 11.8896 15.3918 13.3663C15.379 15.2966 15.4095 17.2664 15.4095 19.2109H19.2067V12.7041C19.1745 8.54942 18.1641 6.63501 14.8399 6.63501C12.8657 6.63501 11.642 7.59528 11.0046 8.46406V6.88235Z" fill="white"/>
</svg>
