<svg width="20" height="16" viewBox="0 0 20 16" fill="none" xmlns="http://www.w3.org/2000/svg">
<path d="M6.57073 15.7891C4.44295 15.7891 2.45949 15.1516 0.790039 14.0517C2.20746 14.1462 4.70889 13.9199 6.26477 12.3912C3.92421 12.2805 2.86866 10.4314 2.73098 9.64115C2.92986 9.72018 3.87832 9.815 4.41374 9.59374C1.72133 8.89834 1.30829 6.46443 1.40008 5.72161C1.9049 6.08512 2.76158 6.21156 3.09813 6.17995C0.589293 4.33081 1.49186 1.5492 1.9355 0.948627C3.73593 3.51806 6.43422 4.96115 9.77236 5.04141C9.70942 4.75706 9.67618 4.46102 9.67618 4.15696C9.67618 1.9748 11.3884 0.205811 13.5006 0.205811C14.6042 0.205811 15.5986 0.688727 16.2967 1.46118C17.0341 1.28316 18.144 0.866454 18.6866 0.506098C18.4131 1.51759 17.5617 2.36139 17.0466 2.67413C17.0509 2.68477 17.0424 2.66344 17.0466 2.67413C17.499 2.60364 18.7231 2.3613 19.2067 2.02334C18.9676 2.59158 18.0649 3.53639 17.3241 4.06534C17.4619 10.3269 12.8112 15.7891 6.57073 15.7891Z" fill="white"/>
</svg>
