<svg width="62" height="62" viewBox="0 0 62 62" fill="none" xmlns="http://www.w3.org/2000/svg">
<g clip-path="url(#clip0_0_80)" filter="url(#filter0_d_0_80)">
<path fill-rule="evenodd" clip-rule="evenodd" d="M23.5859 25.8083H18.0009V27.7485C18.0009 28.2282 18.3924 28.62 18.8717 28.62H20.8806L22.0789 29.2253L23.5859 28.62V25.8083H23.5859Z" fill="#FFEF60"/>
<path fill-rule="evenodd" clip-rule="evenodd" d="M22.7151 22.9929H18.8717C18.3924 22.9929 18.0009 23.3847 18.0009 23.8644V25.3061H23.5859V23.8644C23.5859 23.3847 23.1944 22.9929 22.7151 22.9929Z" fill="#FFEF60"/>
<path fill-rule="evenodd" clip-rule="evenodd" d="M23.5859 24.8716H18.0009V26.2416H23.5859V24.8716Z" fill="#FF814E"/>
<path fill-rule="evenodd" clip-rule="evenodd" d="M19.1682 24.8716H18.453H18.0025V23.8645C18.0025 23.5367 18.1857 23.2504 18.453 23.1022C18.5785 23.0331 18.7215 22.9929 18.8734 22.9929H20.0391C19.5597 22.9929 19.1683 23.3847 19.1683 23.8644V24.8716H19.1682Z" fill="#FFCD1B"/>
<path fill-rule="evenodd" clip-rule="evenodd" d="M19.1641 26.2416H18.4488H17.9984V25.8084V25.3061V24.8716H18.4488H19.1641V25.3061V25.8084V26.2416Z" fill="#FF5A17"/>
<path fill-rule="evenodd" clip-rule="evenodd" d="M19.1683 26.2417V27.7487C19.1683 28.2284 19.5598 28.6202 20.0391 28.6202H18.8734C18.7216 28.6202 18.5785 28.5812 18.453 28.5122C18.1858 28.3627 18.0025 28.0764 18.0025 27.7487V26.2417H18.453H19.1683Z" fill="#FFCD1B"/>
<path fill-rule="evenodd" clip-rule="evenodd" d="M23.5859 28.6202H20.8806V29.8646C20.8806 30.1635 21.1252 30.4071 21.4226 30.4071H30.2308C30.2308 29.6248 30.2308 29.2267 29.6323 29.2267L28.4402 29.2254C27.6899 29.2242 27.198 29.032 26.9232 28.6201H23.5859V28.6202Z" fill="#635448"/>
<path fill-rule="evenodd" clip-rule="evenodd" d="M29.1666 30.4072H21.4209C20.9667 31.1984 20.6015 32.149 20.9165 33.9674C21.4435 32.1741 26.7964 32.8899 27.3459 34.9594H33.2522C33.4755 34.4533 33.6863 33.9535 33.8708 33.4487H32.2057C28.8379 32.1778 29.9208 32.7442 29.1666 30.4072Z" fill="#FF8C5E"/>
<path fill-rule="evenodd" clip-rule="evenodd" d="M29.6439 25.546C29.5285 26.1538 29.3717 26.7529 29.196 27.2627L27.4934 27.9298L25.5948 27.2627C25.6613 23.6699 27.0039 21.947 28.1458 21.3894C28.5574 21.076 28.979 20.958 28.979 20.958C28.979 20.958 29.5336 21.8453 29.5624 21.8453C29.7757 22.3526 29.856 23.0144 29.8422 23.7289L29.6439 25.546Z" fill="#FFFAFA"/>
<path fill-rule="evenodd" clip-rule="evenodd" d="M25.5953 27.2627H29.1965C30.026 27.3531 31.0461 27.9848 31.0461 29.9413V31.992L30.2288 32.4788L29.1665 31.992V30.4071C29.1665 29.6248 29.1665 29.2267 28.5679 29.2267L27.3759 29.2255C26.6255 29.2242 26.1337 29.0321 25.8589 28.6202C25.6468 28.3025 25.5652 27.8542 25.5953 27.2627Z" fill="#FF8086"/>
<path fill-rule="evenodd" clip-rule="evenodd" d="M25.5953 27.2627C25.6618 23.6699 27.0044 21.947 28.1463 21.3894C28.3157 21.5087 28.5039 21.6067 28.7109 21.6795C27.6996 22.4442 26.6857 24.1534 26.628 27.2627H25.5953Z" fill="#FFC8C8"/>
<path fill-rule="evenodd" clip-rule="evenodd" d="M25.5957 27.2627H26.6283C26.5982 27.8542 26.6798 28.3025 26.8918 28.6202C27.065 28.8802 27.326 29.0999 27.6836 29.2255H27.3762C26.6258 29.2243 26.1339 29.0321 25.8591 28.6202C25.6471 28.3025 25.5656 27.8542 25.5957 27.2627Z" fill="#F76672"/>
<path fill-rule="evenodd" clip-rule="evenodd" d="M27.3438 34.9592C27.3438 33.1019 25.8719 31.6226 24.0563 31.6226C22.5794 31.6226 21.3296 32.6021 20.9143 33.9671C20.829 34.2471 20.7788 34.5448 20.77 34.8537C20.7662 34.9743 20.8491 34.9592 20.962 34.9592C23.0888 34.9592 25.2169 34.9579 27.3438 34.9592Z" fill="#FF8C5D"/>
<path fill-rule="evenodd" clip-rule="evenodd" d="M26.5201 34.9592H21.516C21.5875 36.3079 22.6804 37.3804 24.018 37.3804C25.3556 37.3804 26.4486 36.3079 26.5201 34.9592Z" fill="#292019"/>
<path fill-rule="evenodd" clip-rule="evenodd" d="M39.2275 34.4255L34.9224 35.4164C35.1959 36.6056 36.3817 37.349 37.5699 37.0752C38.7594 36.8015 39.501 35.6148 39.2275 34.4255Z" fill="#292019"/>
<path fill-rule="evenodd" clip-rule="evenodd" d="M39.5495 33.2188C38.9409 32.3335 37.8844 31.8199 36.7802 31.9304C34.8328 32.3423 34.1991 33.5064 34.0724 34.9581C34.0749 35.1552 34.0963 35.3537 34.1389 35.5521C34.1515 35.6073 34.1879 35.5847 34.2481 35.5709L34.922 35.4164L39.2271 34.4256L39.5496 34.3515L40 34.2473C39.9134 33.8681 39.7578 33.5215 39.5495 33.2188Z" fill="#FFFAFA"/>
<path fill-rule="evenodd" clip-rule="evenodd" d="M36.7812 31.9252L35.0421 25.9075L34.2592 25.5571L33.3833 25.9075C34.5339 29.0972 34.2127 31.3237 33.436 33.4485C33.2503 33.9533 33.0395 34.4531 32.8174 34.9592H34.0684L36.7812 31.9252Z" fill="#FF814E"/>
<path fill-rule="evenodd" clip-rule="evenodd" d="M31.399 19.1603L29.3587 18.7258C29.1517 18.7447 28.5594 19.242 28.5594 19.5534L28.9936 21.7611C29.1742 21.8151 29.3662 21.8452 29.5645 21.8452C30.6511 21.8452 31.532 20.9624 31.532 19.8749C31.532 19.6225 31.4856 19.3813 31.399 19.1603Z" fill="#FFECE4"/>
<path fill-rule="evenodd" clip-rule="evenodd" d="M32.0547 19.1603C32.0547 17.7564 30.943 16.6199 29.5702 16.6199C28.1975 16.6199 27.0858 17.7564 27.0858 19.1603C27.0858 20.0871 27.4622 20.9109 28.1448 21.3893C28.3882 21.5614 28.6718 21.6882 28.9905 21.761V19.5533C28.9905 19.2419 29.1486 19.1791 29.3557 19.1603H31.3959H32.0547V19.1603Z" fill="#FF8C5D"/>
<path fill-rule="evenodd" clip-rule="evenodd" d="M30.8718 16.9953C30.4941 16.7567 30.0486 16.6199 29.5719 16.6199C28.1991 16.6199 27.0874 17.7564 27.0874 19.1603C27.0874 20.0871 27.4638 20.9109 28.1465 21.3893C28.3196 21.5111 28.5116 21.6103 28.7224 21.6832C28.218 21.1721 27.9445 20.4387 27.9445 19.63C27.9445 18.1632 29.1076 16.974 30.5418 16.974C30.6535 16.974 30.7639 16.9803 30.8718 16.9953Z" fill="#FF5A17"/>
<path fill-rule="evenodd" clip-rule="evenodd" d="M31.0477 31.9919H29.168V33.1762C29.168 33.4298 29.3061 33.4487 29.5093 33.4487H32.2071C32.2611 32.2607 31.5421 31.9919 31.0477 31.9919Z" fill="#635448"/>
<path fill-rule="evenodd" clip-rule="evenodd" d="M33.4392 33.4487C34.2159 31.3239 34.5371 29.0974 33.3865 25.9077H34.0314C34.0339 25.9077 34.0365 25.9077 34.039 25.9077H34.2711C35.4217 29.0974 35.1017 31.3239 34.3238 33.4487C34.1393 33.9535 33.9285 34.4533 33.7052 34.9594H33.2534H32.8205C33.0426 34.4533 33.2534 33.9535 33.4392 33.4487Z" fill="#FF5A17"/>
<path fill-rule="evenodd" clip-rule="evenodd" d="M34.0733 34.958L36.7811 31.9303C37.0609 31.9027 37.3382 31.914 37.6055 31.9629L35.0031 34.8726C35.0056 35.0421 35.0219 35.2141 35.0545 35.3862L34.9228 35.4163L34.2489 35.5708C34.1887 35.5846 34.1523 35.6072 34.1397 35.552C34.0971 35.3536 34.0758 35.1551 34.0733 34.958Z" fill="#FFC8C8"/>
<path fill-rule="evenodd" clip-rule="evenodd" d="M21.4213 30.4072H29.1671V31.0891H22.8028C22.2846 31.0891 22.0387 31.3126 21.8366 31.766C21.6622 32.1591 21.6584 32.2872 21.5794 32.7618C21.282 33.1072 21.0537 33.5166 20.9169 33.9674C20.602 32.149 20.9671 31.1984 21.4213 30.4072Z" fill="#FF5A17"/>
<path fill-rule="evenodd" clip-rule="evenodd" d="M21.5797 32.7615C22.182 32.062 23.0692 31.6226 24.0592 31.6226C24.3076 31.6226 24.5485 31.6502 24.7806 31.7017C23.2987 32.0369 22.2623 33.3455 22.2171 34.8537C22.2146 34.9366 22.2523 34.9554 22.3125 34.9592H21.5157H20.9648C20.8519 34.9592 20.7691 34.9743 20.7729 34.8537C20.7816 34.5448 20.8318 34.2471 20.9171 33.9671C20.9196 33.9583 20.9222 33.9508 20.9247 33.9433C20.9247 33.9433 20.9247 33.9433 20.9247 33.942C21.0627 33.5012 21.2873 33.1006 21.5797 32.7615Z" fill="#FF5A17"/>
<path fill-rule="evenodd" clip-rule="evenodd" d="M35.0547 35.3862L39.2281 34.4255C39.2745 34.6227 39.2909 34.8211 39.2833 35.0145L35.9708 35.7768L35.8403 35.8069C35.9632 36.3469 36.2757 36.7952 36.691 37.0978C35.844 36.9484 35.1275 36.308 34.923 35.4164L35.0547 35.3862Z" fill="#635448"/>
<path fill-rule="evenodd" clip-rule="evenodd" d="M22.3122 34.9593H26.5195C26.5057 35.223 26.4518 35.4767 26.3652 35.714H23.434H22.6373C22.6686 36.3042 22.8945 36.8404 23.2509 37.2586C22.2834 36.9409 21.572 36.038 21.5155 34.9592H22.3122V34.9593Z" fill="#635448"/>
<path fill-rule="evenodd" clip-rule="evenodd" d="M20.8795 29.8646V28.6201H22.5797V29.8646C22.5797 30.1635 22.8243 30.4071 23.1217 30.4071H21.4215C21.1241 30.4071 20.8795 30.1635 20.8795 29.8646Z" fill="#292019"/>
<path fill-rule="evenodd" clip-rule="evenodd" d="M31.5195 19.6637H29.8431C29.6361 19.6826 29.478 19.7466 29.478 20.0581V21.8425C29.3099 21.835 29.1467 21.8074 28.9912 21.7609V19.5532C28.9912 19.2418 29.1492 19.179 29.3563 19.1602H31.3966C31.458 19.3184 31.5007 19.4879 31.5195 19.6637Z" fill="#FFDDCE"/>
<path fill-rule="evenodd" clip-rule="evenodd" d="M35.4085 24.0126L33.0608 24.7887C32.9453 24.8916 33.0758 25.9415 33.1537 25.9076H35.0459H35.8828V24.1797C35.8828 23.8393 35.7059 23.9147 35.4085 24.0126Z" fill="#FFE07D"/>
<path fill-rule="evenodd" clip-rule="evenodd" d="M31.968 25.9075H32.165H33.155C33.7924 25.9075 33.8113 24.8501 33.0621 24.7886L31.968 24.7007L31.6744 25.3223L31.968 25.9075Z" fill="#FFECE4"/>
<path fill-rule="evenodd" clip-rule="evenodd" d="M29.8437 23.7289L29.4509 23.391C28.4672 22.5434 27.2237 23.9737 28.5387 24.8277L29.6454 25.546L30.2026 25.9076H31.9655V24.7008L30.8701 24.6116L29.8437 23.7289Z" fill="#FF8086"/>
<path fill-rule="evenodd" clip-rule="evenodd" d="M31.9677 25.9077V25.3226H32.2023H32.329H32.5273H33.5173C33.5549 25.3226 33.5901 25.3201 33.6239 25.3125C33.6603 25.6038 33.4959 25.9077 33.1546 25.9077H32.1646H31.9677Z" fill="#FFDDCE"/>
<path fill-rule="evenodd" clip-rule="evenodd" d="M28.5387 24.8277C27.7432 24.3103 27.8837 23.5833 28.3367 23.2769C28.3003 23.5908 28.4496 23.9512 28.9013 24.2438L29.7634 24.8026L30.0068 24.9621L30.5639 25.3226H31.9655V25.9077H30.2025L29.6454 25.5461L28.5387 24.8277Z" fill="#F76672"/>
<path fill-rule="evenodd" clip-rule="evenodd" d="M33.0602 24.7887L34.005 24.4773C34.3212 24.8164 34.4743 25.4769 34.2711 25.9076H33.3865H33.1531C33.4944 25.9076 33.6587 25.6037 33.6224 25.3124C33.5897 25.06 33.4078 24.8176 33.0602 24.7887Z" fill="#FFC269"/>
</g>
<defs>
<filter id="filter0_d_0_80" x="0" y="0" width="62" height="62" filterUnits="userSpaceOnUse" color-interpolation-filters="sRGB">
<feFlood flood-opacity="0" result="BackgroundImageFix"/>
<feColorMatrix in="SourceAlpha" type="matrix" values="0 0 0 0 0 0 0 0 0 0 0 0 0 0 0 0 0 0 127 0" result="hardAlpha"/>
<feOffset dx="2" dy="4"/>
<feGaussianBlur stdDeviation="10"/>
<feColorMatrix type="matrix" values="0 0 0 0 1 0 0 0 0 0.466667 0 0 0 0 0.491863 0 0 0 0.6 0"/>
<feBlend mode="normal" in2="BackgroundImageFix" result="effect1_dropShadow_0_80"/>
<feBlend mode="normal" in="SourceGraphic" in2="effect1_dropShadow_0_80" result="shape"/>
</filter>
<clipPath id="clip0_0_80">
<rect width="22" height="22" fill="white" transform="matrix(-1 0 0 1 40 16)"/>
</clipPath>
</defs>
</svg>
