<svg width="58" height="12" viewBox="0 0 58 12" fill="none" xmlns="http://www.w3.org/2000/svg">
<path d="M10.2354 4.58562L6.51626 4.31271L5.11564 0.385254L3.71501 4.31271L0 4.58562L2.84939 7.28608L1.91437 11.3825L5.11564 9.12396L8.31692 11.3825L7.38191 7.28608L10.2354 4.58562Z" fill="#E79331"/>
<path d="M22.1765 4.58584L18.4574 4.31293L17.0568 0.385498L15.6562 4.31293L11.9412 4.58584L14.7905 7.28628L13.8555 11.3827L17.0568 9.12415L20.2581 11.3827L19.3231 7.28628L22.1765 4.58584Z" fill="#E79331"/>
<path d="M34.1177 4.58562L30.3986 4.31271L28.998 0.385254L27.5973 4.31271L23.8823 4.58562L26.7317 7.28608L25.7967 11.3825L28.998 9.12396L32.1992 11.3825L31.2642 7.28608L34.1177 4.58562Z" fill="#E79331"/>
<path d="M46.0588 4.58562L42.3397 4.31271L40.9391 0.385254L39.5385 4.31271L35.8235 4.58562L38.6729 7.28608L37.7379 11.3825L40.9391 9.12396L44.1404 11.3825L43.2054 7.28608L46.0588 4.58562Z" fill="#E79331"/>
<path d="M58 4.58562L54.2809 4.31271L52.8803 0.385254L51.4797 4.31271L47.7646 4.58562L50.614 7.28608L49.679 11.3825L52.8803 9.12396L56.0816 11.3825L55.1466 7.28608L58 4.58562Z" fill="#2F1319"/>
</svg>
