<svg width="97" height="34" viewBox="0 0 97 34" fill="none" xmlns="http://www.w3.org/2000/svg">
<path d="M0 22.6159L3.648 21.8159C3.69067 22.4985 3.95733 23.0745 4.448 23.5439C4.96 23.9919 5.65333 24.2159 6.528 24.2159C7.18933 24.2159 7.70133 24.0665 8.064 23.7679C8.42667 23.4692 8.608 23.0959 8.608 22.6479C8.608 21.8585 8.04267 21.3465 6.912 21.1119L4.832 20.6319C3.36 20.3119 2.25067 19.7359 1.504 18.9039C0.778667 18.0719 0.416 17.0799 0.416 15.9279C0.416 14.4985 0.970667 13.2825 2.08 12.2799C3.21067 11.2772 4.61867 10.7759 6.304 10.7759C7.37067 10.7759 8.30933 10.9359 9.12 11.2559C9.93067 11.5545 10.56 11.9492 11.008 12.4399C11.456 12.9092 11.7973 13.3892 12.032 13.8799C12.2667 14.3705 12.416 14.8505 12.48 15.3199L8.928 16.1199C8.84267 15.5652 8.58667 15.0745 8.16 14.6479C7.75467 14.2212 7.14667 14.0079 6.336 14.0079C5.78133 14.0079 5.30133 14.1572 4.896 14.4559C4.512 14.7545 4.32 15.1279 4.32 15.5759C4.32 16.3439 4.8 16.8132 5.76 16.9839L8 17.4639C9.51467 17.7839 10.6667 18.3705 11.456 19.2239C12.2667 20.0772 12.672 21.1012 12.672 22.2959C12.672 23.7039 12.1387 24.9199 11.072 25.9439C10.0053 26.9679 8.50133 27.4799 6.56 27.4799C5.45067 27.4799 4.45867 27.3199 3.584 26.9999C2.70933 26.6585 2.02667 26.2319 1.536 25.7199C1.06667 25.1865 0.704 24.6639 0.448 24.1519C0.213333 23.6185 0.064 23.1065 0 22.6159Z" fill="#505050"/>
<path d="M24.673 26.9999C24.5877 26.5732 24.545 26.0079 24.545 25.3039C24.1397 26.0079 23.5317 26.5412 22.721 26.9039C21.9317 27.2452 21.089 27.4159 20.193 27.4159C18.337 27.4159 16.8757 26.8292 15.809 25.6559C14.7423 24.4612 14.209 22.9785 14.209 21.2079V11.2559H18.465V20.3439C18.465 21.2825 18.7103 22.0505 19.201 22.6479C19.6917 23.2239 20.4063 23.5119 21.345 23.5119C22.2623 23.5119 22.9877 23.2345 23.521 22.6799C24.0543 22.1039 24.321 21.3465 24.321 20.4079V11.2559H28.577V24.1519C28.577 25.1545 28.6303 26.1039 28.737 26.9999H24.673Z" fill="#505050"/>
<path d="M35.775 17.9439V26.9999H31.519V11.2559H35.647V13.2079C36.095 12.4399 36.735 11.8532 37.567 11.4479C38.399 11.0425 39.2737 10.8399 40.191 10.8399C42.047 10.8399 43.455 11.4265 44.415 12.5999C45.3963 13.7519 45.887 15.2452 45.887 17.0799V26.9999H41.631V17.8159C41.631 16.8772 41.3857 16.1199 40.895 15.5439C40.4257 14.9679 39.7003 14.6799 38.719 14.6799C37.823 14.6799 37.1083 14.9892 36.575 15.6079C36.0417 16.2265 35.775 17.0052 35.775 17.9439Z" fill="#505050"/>
<path d="M52.8625 17.9439V26.9999H48.6065V11.2559H52.7345V13.2079C53.1825 12.4399 53.8225 11.8532 54.6545 11.4479C55.4865 11.0425 56.3612 10.8399 57.2785 10.8399C59.1345 10.8399 60.5425 11.4265 61.5025 12.5999C62.4838 13.7519 62.9745 15.2452 62.9745 17.0799V26.9999H58.7185V17.8159C58.7185 16.8772 58.4732 16.1199 57.9825 15.5439C57.5132 14.9679 56.7878 14.6799 55.8065 14.6799C54.9105 14.6799 54.1958 14.9892 53.6625 15.6079C53.1292 16.2265 52.8625 17.0052 52.8625 17.9439Z" fill="#505050"/>
<path d="M70.8527 33.2079H66.3408L70.0527 25.0159L63.3647 11.2559H68.1328L72.3247 20.4719L76.1967 11.2559H80.7407L70.8527 33.2079Z" fill="#505050"/>
<path d="M86.2 1.84794V0.491943H79.228V1.84794H81.988V8.99994H83.428V1.84794H86.2Z" fill="#505050"/>
<path d="M96.7411 8.99994V0.491943H94.7851L92.0611 6.98394L89.3011 0.491943H87.3811V8.99994H88.7851V2.75994L91.4131 8.99994H92.6611L95.3131 2.73594V8.99994H96.7411Z" fill="#505050"/>
</svg>
